<mxfile host="app.diagrams.net" agent="Mozilla/5.0 (Windows NT 10.0; Win64; x64) AppleWebKit/537.36 (KHTML, like Gecko) Chrome/140.0.0.0 Safari/537.36" version="28.2.3">
  <diagram name="Page-1" id="ytrUg0hN4WUxii-IYWqJ">
    <mxGraphModel dx="1226" dy="661" grid="1" gridSize="10" guides="1" tooltips="1" connect="1" arrows="1" fold="1" page="1" pageScale="1" pageWidth="850" pageHeight="1100" math="0" shadow="0">
      <root>
        <mxCell id="0" />
        <mxCell id="1" parent="0" />
        <mxCell id="z48I7qmrgykW5kx7Iq31-1" value="" style="ellipse;html=1;shape=startState;fillColor=light-dark(#FFFFFF,#000000);" vertex="1" parent="1">
          <mxGeometry x="410" y="70" width="30" height="30" as="geometry" />
        </mxCell>
        <mxCell id="z48I7qmrgykW5kx7Iq31-2" value="" style="edgeStyle=orthogonalEdgeStyle;html=1;verticalAlign=bottom;endArrow=open;endSize=8;rounded=0;" edge="1" parent="1" source="z48I7qmrgykW5kx7Iq31-1">
          <mxGeometry relative="1" as="geometry">
            <mxPoint x="425" y="160" as="targetPoint" />
          </mxGeometry>
        </mxCell>
        <mxCell id="z48I7qmrgykW5kx7Iq31-3" value="Login" style="rounded=1;whiteSpace=wrap;html=1;" vertex="1" parent="1">
          <mxGeometry x="370" y="160" width="120" height="60" as="geometry" />
        </mxCell>
        <mxCell id="z48I7qmrgykW5kx7Iq31-4" value="" style="rhombus;whiteSpace=wrap;html=1;" vertex="1" parent="1">
          <mxGeometry x="390" y="260" width="80" height="80" as="geometry" />
        </mxCell>
        <mxCell id="z48I7qmrgykW5kx7Iq31-5" value="" style="endArrow=none;html=1;rounded=0;entryX=0.5;entryY=1;entryDx=0;entryDy=0;" edge="1" parent="1" source="z48I7qmrgykW5kx7Iq31-4" target="z48I7qmrgykW5kx7Iq31-3">
          <mxGeometry width="50" height="50" relative="1" as="geometry">
            <mxPoint x="400" y="320" as="sourcePoint" />
            <mxPoint x="450" y="270" as="targetPoint" />
          </mxGeometry>
        </mxCell>
        <mxCell id="z48I7qmrgykW5kx7Iq31-6" value="" style="endArrow=none;html=1;rounded=0;" edge="1" parent="1">
          <mxGeometry width="50" height="50" relative="1" as="geometry">
            <mxPoint x="690" y="300" as="sourcePoint" />
            <mxPoint x="470" y="299.5" as="targetPoint" />
          </mxGeometry>
        </mxCell>
        <mxCell id="z48I7qmrgykW5kx7Iq31-7" value="" style="endArrow=none;html=1;rounded=0;" edge="1" parent="1">
          <mxGeometry width="50" height="50" relative="1" as="geometry">
            <mxPoint x="390" y="300" as="sourcePoint" />
            <mxPoint x="170" y="299.5" as="targetPoint" />
          </mxGeometry>
        </mxCell>
        <mxCell id="z48I7qmrgykW5kx7Iq31-8" value="Dashboard" style="rounded=1;whiteSpace=wrap;html=1;" vertex="1" parent="1">
          <mxGeometry x="110" y="410" width="120" height="60" as="geometry" />
        </mxCell>
        <mxCell id="z48I7qmrgykW5kx7Iq31-9" value="Error Message" style="rounded=1;whiteSpace=wrap;html=1;" vertex="1" parent="1">
          <mxGeometry x="620" y="410" width="120" height="60" as="geometry" />
        </mxCell>
        <mxCell id="z48I7qmrgykW5kx7Iq31-10" value="" style="endArrow=block;endFill=1;html=1;edgeStyle=orthogonalEdgeStyle;align=left;verticalAlign=top;rounded=0;exitX=0.5;exitY=1;exitDx=0;exitDy=0;" edge="1" parent="1" source="z48I7qmrgykW5kx7Iq31-8">
          <mxGeometry x="-1" relative="1" as="geometry">
            <mxPoint x="170" y="520" as="sourcePoint" />
            <mxPoint x="170" y="550" as="targetPoint" />
          </mxGeometry>
        </mxCell>
        <mxCell id="z48I7qmrgykW5kx7Iq31-12" value="" style="endArrow=block;endFill=1;html=1;edgeStyle=orthogonalEdgeStyle;align=left;verticalAlign=top;rounded=0;exitX=0.5;exitY=1;exitDx=0;exitDy=0;entryX=0.5;entryY=0;entryDx=0;entryDy=0;" edge="1" parent="1" target="z48I7qmrgykW5kx7Iq31-8">
          <mxGeometry x="-1" relative="1" as="geometry">
            <mxPoint x="169.5" y="300" as="sourcePoint" />
            <mxPoint x="169.5" y="380" as="targetPoint" />
          </mxGeometry>
        </mxCell>
        <mxCell id="z48I7qmrgykW5kx7Iq31-13" value="&amp;nbsp; &amp;nbsp; &amp;nbsp; &amp;nbsp; &amp;nbsp; &amp;nbsp; &amp;nbsp; &amp;nbsp; &amp;nbsp; &amp;nbsp; &amp;nbsp; &amp;nbsp; &amp;nbsp; &amp;nbsp; &amp;nbsp; &amp;nbsp; &amp;nbsp; &amp;nbsp; &amp;nbsp; &amp;nbsp; &amp;nbsp; &amp;nbsp; &amp;nbsp; &amp;nbsp; &amp;nbsp; &amp;nbsp; &amp;nbsp; &amp;nbsp; &amp;nbsp; &amp;nbsp; &amp;nbsp; &amp;nbsp; &amp;nbsp; &amp;nbsp;T" style="edgeLabel;resizable=0;html=1;align=left;verticalAlign=bottom;" connectable="0" vertex="1" parent="z48I7qmrgykW5kx7Iq31-12">
          <mxGeometry x="-1" relative="1" as="geometry" />
        </mxCell>
        <mxCell id="z48I7qmrgykW5kx7Iq31-14" value="" style="endArrow=block;endFill=1;html=1;edgeStyle=orthogonalEdgeStyle;align=left;verticalAlign=top;rounded=0;exitX=0.5;exitY=1;exitDx=0;exitDy=0;entryX=0.5;entryY=0;entryDx=0;entryDy=0;" edge="1" parent="1">
          <mxGeometry x="-1" relative="1" as="geometry">
            <mxPoint x="690" y="300" as="sourcePoint" />
            <mxPoint x="690.5" y="410" as="targetPoint" />
          </mxGeometry>
        </mxCell>
        <mxCell id="z48I7qmrgykW5kx7Iq31-15" value="&amp;nbsp; &amp;nbsp; &amp;nbsp; F" style="edgeLabel;resizable=0;html=1;align=left;verticalAlign=bottom;" connectable="0" vertex="1" parent="z48I7qmrgykW5kx7Iq31-14">
          <mxGeometry x="-1" relative="1" as="geometry">
            <mxPoint x="-217" as="offset" />
          </mxGeometry>
        </mxCell>
        <mxCell id="z48I7qmrgykW5kx7Iq31-16" value="" style="endArrow=none;html=1;rounded=0;exitX=1;exitY=0.5;exitDx=0;exitDy=0;" edge="1" parent="1" source="z48I7qmrgykW5kx7Iq31-9">
          <mxGeometry width="50" height="50" relative="1" as="geometry">
            <mxPoint x="380" y="380" as="sourcePoint" />
            <mxPoint x="800" y="440" as="targetPoint" />
          </mxGeometry>
        </mxCell>
        <mxCell id="z48I7qmrgykW5kx7Iq31-17" value="" style="endArrow=none;html=1;rounded=0;" edge="1" parent="1">
          <mxGeometry width="50" height="50" relative="1" as="geometry">
            <mxPoint x="800" y="440" as="sourcePoint" />
            <mxPoint x="800" y="190" as="targetPoint" />
          </mxGeometry>
        </mxCell>
        <mxCell id="z48I7qmrgykW5kx7Iq31-18" value="" style="endArrow=block;endFill=1;html=1;edgeStyle=orthogonalEdgeStyle;align=left;verticalAlign=top;rounded=0;entryX=1;entryY=0.5;entryDx=0;entryDy=0;" edge="1" parent="1" target="z48I7qmrgykW5kx7Iq31-3">
          <mxGeometry x="-1" relative="1" as="geometry">
            <mxPoint x="800" y="190" as="sourcePoint" />
            <mxPoint x="680.5" y="300" as="targetPoint" />
          </mxGeometry>
        </mxCell>
        <mxCell id="z48I7qmrgykW5kx7Iq31-19" value="" style="html=1;points=[[0,0,0,0,5],[0,1,0,0,-5],[1,0,0,0,5],[1,1,0,0,-5]];perimeter=orthogonalPerimeter;outlineConnect=0;targetShapes=umlLifeline;portConstraint=eastwest;newEdgeStyle={&quot;curved&quot;:0,&quot;rounded&quot;:0};direction=south;fillColor=light-dark(#FFFFFF,#000000);" vertex="1" parent="1">
          <mxGeometry x="30" y="550" width="570" height="10" as="geometry" />
        </mxCell>
        <mxCell id="z48I7qmrgykW5kx7Iq31-20" value="" style="html=1;points=[[0,0,0,0,5],[0,1,0,0,-5],[1,0,0,0,5],[1,1,0,0,-5]];perimeter=orthogonalPerimeter;outlineConnect=0;targetShapes=umlLifeline;portConstraint=eastwest;newEdgeStyle={&quot;curved&quot;:0,&quot;rounded&quot;:0};direction=south;strokeColor=light-dark(#000000,#F5F5F5);" vertex="1" parent="1">
          <mxGeometry x="30" y="820" width="570" height="10" as="geometry" />
        </mxCell>
        <mxCell id="z48I7qmrgykW5kx7Iq31-21" value="create / manage courses" style="rounded=1;whiteSpace=wrap;html=1;" vertex="1" parent="1">
          <mxGeometry x="40" y="660" width="120" height="60" as="geometry" />
        </mxCell>
        <mxCell id="z48I7qmrgykW5kx7Iq31-22" value="View enrolled students" style="rounded=1;whiteSpace=wrap;html=1;" vertex="1" parent="1">
          <mxGeometry x="240" y="660" width="120" height="60" as="geometry" />
        </mxCell>
        <mxCell id="z48I7qmrgykW5kx7Iq31-23" value="Track earning" style="rounded=1;whiteSpace=wrap;html=1;" vertex="1" parent="1">
          <mxGeometry x="430" y="660" width="120" height="60" as="geometry" />
        </mxCell>
        <mxCell id="z48I7qmrgykW5kx7Iq31-24" value="" style="endArrow=block;endFill=1;html=1;edgeStyle=orthogonalEdgeStyle;align=left;verticalAlign=top;rounded=0;" edge="1" parent="1">
          <mxGeometry x="-1" relative="1" as="geometry">
            <mxPoint x="99.5" y="560" as="sourcePoint" />
            <mxPoint x="100" y="660" as="targetPoint" />
          </mxGeometry>
        </mxCell>
        <mxCell id="z48I7qmrgykW5kx7Iq31-26" value="" style="endArrow=block;endFill=1;html=1;edgeStyle=orthogonalEdgeStyle;align=left;verticalAlign=top;rounded=0;" edge="1" parent="1">
          <mxGeometry x="-1" relative="1" as="geometry">
            <mxPoint x="300" y="560" as="sourcePoint" />
            <mxPoint x="300.5" y="660" as="targetPoint" />
          </mxGeometry>
        </mxCell>
        <mxCell id="z48I7qmrgykW5kx7Iq31-28" value="" style="endArrow=block;endFill=1;html=1;edgeStyle=orthogonalEdgeStyle;align=left;verticalAlign=top;rounded=0;" edge="1" parent="1">
          <mxGeometry x="-1" relative="1" as="geometry">
            <mxPoint x="490" y="560" as="sourcePoint" />
            <mxPoint x="490.5" y="660" as="targetPoint" />
          </mxGeometry>
        </mxCell>
        <mxCell id="z48I7qmrgykW5kx7Iq31-30" value="" style="endArrow=block;endFill=1;html=1;edgeStyle=orthogonalEdgeStyle;align=left;verticalAlign=top;rounded=0;" edge="1" parent="1">
          <mxGeometry x="-1" relative="1" as="geometry">
            <mxPoint x="99.5" y="720" as="sourcePoint" />
            <mxPoint x="100" y="820" as="targetPoint" />
          </mxGeometry>
        </mxCell>
        <mxCell id="z48I7qmrgykW5kx7Iq31-32" value="" style="endArrow=block;endFill=1;html=1;edgeStyle=orthogonalEdgeStyle;align=left;verticalAlign=top;rounded=0;" edge="1" parent="1">
          <mxGeometry x="-1" relative="1" as="geometry">
            <mxPoint x="299.5" y="720" as="sourcePoint" />
            <mxPoint x="300" y="820" as="targetPoint" />
          </mxGeometry>
        </mxCell>
        <mxCell id="z48I7qmrgykW5kx7Iq31-34" value="" style="endArrow=block;endFill=1;html=1;edgeStyle=orthogonalEdgeStyle;align=left;verticalAlign=top;rounded=0;" edge="1" parent="1">
          <mxGeometry x="-1" relative="1" as="geometry">
            <mxPoint x="489.5" y="720" as="sourcePoint" />
            <mxPoint x="490" y="820" as="targetPoint" />
          </mxGeometry>
        </mxCell>
        <mxCell id="z48I7qmrgykW5kx7Iq31-36" value="logout" style="rounded=1;whiteSpace=wrap;html=1;" vertex="1" parent="1">
          <mxGeometry x="320" y="930" width="120" height="60" as="geometry" />
        </mxCell>
        <mxCell id="z48I7qmrgykW5kx7Iq31-37" value="" style="endArrow=block;endFill=1;html=1;edgeStyle=orthogonalEdgeStyle;align=left;verticalAlign=top;rounded=0;" edge="1" parent="1">
          <mxGeometry x="-1" relative="1" as="geometry">
            <mxPoint x="384.5" y="830" as="sourcePoint" />
            <mxPoint x="385" y="930" as="targetPoint" />
          </mxGeometry>
        </mxCell>
        <mxCell id="z48I7qmrgykW5kx7Iq31-39" value="" style="endArrow=block;endFill=1;html=1;edgeStyle=orthogonalEdgeStyle;align=left;verticalAlign=top;rounded=0;" edge="1" parent="1">
          <mxGeometry x="-1" relative="1" as="geometry">
            <mxPoint x="379.5" y="990" as="sourcePoint" />
            <mxPoint x="380" y="1090" as="targetPoint" />
          </mxGeometry>
        </mxCell>
        <mxCell id="z48I7qmrgykW5kx7Iq31-41" value="" style="ellipse;html=1;shape=endState;fillColor=light-dark(#000000,#FFFFFF);strokeColor=#000000;" vertex="1" parent="1">
          <mxGeometry x="365" y="1090" width="30" height="30" as="geometry" />
        </mxCell>
      </root>
    </mxGraphModel>
  </diagram>
</mxfile>
